<svg
  xmlns="http://www.w3.org/2000/svg"
  viewBox="0 0 1024 1024"
  width="200"
  height="200"
  fill="currentColor"
>
  <style>
    @media (prefers-color-scheme: dark) {
      path {
        fill: white;
      }
    }

    @media (prefers-color-scheme: light) {
      path {
        fill: #141414;
      }
    }
  </style>
  <path d="M546.12992 580.34176h136.54016V716.8H546.12992z" />
  <path d="M819.2 853.34016V505.73312c39.66976-14.11072 68.27008-51.63008 68.27008-96.13312l-102.4-307.2H238.92992l-102.4 307.2c0 44.50304 28.60032 82.0224 68.27008 96.13312v347.60704H102.4V921.6h819.2v-68.25984H819.2z m-68.27008 0H477.87008V580.27008H341.32992v273.07008h-68.25984V505.73312A102.42048 102.42048 0 0 0 307.2 485.41696C325.33504 501.77024 349.1328 512 375.47008 512c26.32704 0 50.13504-10.22976 68.25984-26.58304C461.86496 501.77024 485.67296 512 512 512s50.13504-10.22976 68.27008-26.58304C598.40512 501.77024 622.20288 512 648.52992 512c26.33728 0 50.13504-10.22976 68.27008-26.58304a102.12352 102.12352 0 0 0 34.12992 20.31616v347.60704z m34.14016-409.61024c-18.87232 0-34.14016-15.28832-34.14016-34.12992s-15.2576-34.12992-34.12992-34.12992-34.12992 15.27808-34.12992 34.12992-15.26784 34.12992-34.14016 34.12992C629.66784 443.72992 614.4 428.45184 614.4 409.6s-15.26784-34.12992-34.12992-34.12992c-18.87232 0-34.14016 15.27808-34.14016 34.12992s-15.2576 34.12992-34.12992 34.12992-34.12992-15.27808-34.12992-34.12992-15.26784-34.12992-34.14016-34.12992C424.86784 375.47008 409.6 390.74816 409.6 409.6s-15.26784 34.12992-34.12992 34.12992c-18.87232 0-34.14016-15.28832-34.14016-34.12992s-15.2576-34.12992-34.12992-34.12992-34.12992 15.27808-34.12992 34.12992-15.26784 34.12992-34.14016 34.12992A34.11968 34.11968 0 0 1 204.8 409.6l79.6672-238.92992h455.09632L819.2 409.6a34.11968 34.11968 0 0 1-34.12992 34.12992z" />
</svg>
